<?xml version="1.0" encoding="UTF-8"?>
<svg xmlns="http://www.w3.org/2000/svg" version="1.1" viewBox="0 0 595.3 841.9">
  <!-- Generator: Adobe Illustrator 30.2.1, SVG Export Plug-In . SVG Version: 2.1.1 Build 1)  -->
  <defs>
    <style>
      .st0 {
        opacity: .4;
      }

      .st0, .st1 {
        fill: none;
        stroke: #000;
        stroke-miterlimit: 10;
        stroke-width: 9px;
      }

      .st2 {
        display: none;
      }
    </style>
  </defs>
  <g id="Layer_1" class="st2">
    <polyline class="st0" points="374.4 407.9 569.5 407.9 568.3 142 41.8 142 41.8 407.9 180.1 407.9"/>
    <polyline class="st0" points="244.1 407.9 285.2 407.9 285.2 312.8"/>
    <line class="st0" x1="285.3" y1="142.4" x2="285.2" y2="235.7"/>
    <polyline class="st0" points="41.8 407.9 41.8 497.1 61.1 497.1 156.3 497.1 156.3 654.5 568.3 654.9 569.5 407.9"/>
    <line class="st0" x1="156.3" y1="497.1" x2="180.1" y2="497.1"/>
    <line class="st0" x1="285.2" y1="407.9" x2="313.3" y2="407.9"/>
    <polyline class="st0" points="244.1 497.1 371.9 497.1 371.9 654.9"/>
  </g>
  <g id="Layer_2">
    <line class="st1" x1="41.8" y1="142" x2="569.5" y2="142"/>
    <line class="st1" x1="41.8" y1="142" x2="41.8" y2="497.1"/>
    <line class="st1" x1="569.5" y1="142" x2="569.5" y2="654.9"/>
    <line class="st1" x1="156.3" y1="654.5" x2="569.5" y2="654.5"/>
    <line class="st1" x1="156.3" y1="497.1" x2="156.3" y2="654.5"/>
    <line class="st1" x1="41.8" y1="497.1" x2="191.1" y2="497.1"/>
    <g>
      <line class="st1" x1="261.2" y1="404.8" x2="334.1" y2="404.8"/>
      <g>
        <line class="st1" x1="297.6" y1="309.6" x2="297.6" y2="404.8"/>
        <line class="st1" x1="297.6" y1="271.8" x2="297.6" y2="138.8"/>
      </g>
    </g>
    <line class="st1" x1="260.6" y1="497.1" x2="371.9" y2="497.1"/>
    <line class="st1" x1="371.9" y1="654.5" x2="371.9" y2="497.1"/>
    <g>
      <line class="st1" x1="41.8" y1="407.9" x2="191.1" y2="407.9"/>
      <line class="st1" x1="385.9" y1="407.9" x2="569.5" y2="407.9"/>
    </g>
  </g>
</svg>